<mxfile host="app.diagrams.net" modified="2021-05-12T02:49:52.975Z" agent="5.0 (Macintosh; Intel Mac OS X 10_15_7) AppleWebKit/537.36 (KHTML, like Gecko) Chrome/90.0.4430.85 Safari/537.36" etag="dG7UlkjgdjigwsNTFSEP" version="14.6.3" type="github">
  <diagram id="blv5_ZdXRcWsS6tgFCRy" name="Page-1">
    <mxGraphModel dx="946" dy="-555" grid="0" gridSize="10" guides="1" tooltips="1" connect="1" arrows="1" fold="1" page="1" pageScale="1" pageWidth="827" pageHeight="1169" math="1" shadow="0">
      <root>
        <mxCell id="0" />
        <mxCell id="1" parent="0" />
        <mxCell id="NrOy4aeaFnWakyzEMCqW-1" value="" style="ellipse;whiteSpace=wrap;html=1;aspect=fixed;strokeColor=#000000;strokeWidth=1;fillColor=#FFFFFF;fontSize=11;dashed=1;opacity=40;" vertex="1" parent="1">
          <mxGeometry x="89.25" y="2189.25" width="50.25" height="50.25" as="geometry" />
        </mxCell>
        <mxCell id="NrOy4aeaFnWakyzEMCqW-2" value="" style="ellipse;whiteSpace=wrap;html=1;aspect=fixed;strokeColor=#000000;strokeWidth=1;fillColor=#FFFFFF;fontSize=11;dashed=1;opacity=40;" vertex="1" parent="1">
          <mxGeometry x="69.25" y="2174" width="50.25" height="50.25" as="geometry" />
        </mxCell>
        <mxCell id="NrOy4aeaFnWakyzEMCqW-3" value="" style="endArrow=classic;html=1;fontSize=11;fillColor=#d5e8d4;strokeColor=#82b366;entryX=0;entryY=0;entryDx=0;entryDy=0;" edge="1" parent="1" target="NrOy4aeaFnWakyzEMCqW-1">
          <mxGeometry width="50" height="50" relative="1" as="geometry">
            <mxPoint x="35" y="2258.2500000000005" as="sourcePoint" />
            <mxPoint x="89.25" y="2217.25" as="targetPoint" />
          </mxGeometry>
        </mxCell>
        <mxCell id="NrOy4aeaFnWakyzEMCqW-4" value="" style="endArrow=classic;html=1;fontSize=11;fillColor=#f8cecc;strokeColor=#B85450;" edge="1" parent="1">
          <mxGeometry width="50" height="50" relative="1" as="geometry">
            <mxPoint x="35" y="2258.2500000000005" as="sourcePoint" />
            <mxPoint x="118.25" y="2214.25" as="targetPoint" />
          </mxGeometry>
        </mxCell>
        <mxCell id="NrOy4aeaFnWakyzEMCqW-5" value="" style="endArrow=classic;html=1;strokeColor=#6c8ebf;fontSize=11;exitX=0;exitY=0;exitDx=0;exitDy=0;fillColor=#dae8fc;" edge="1" parent="1" source="NrOy4aeaFnWakyzEMCqW-1">
          <mxGeometry width="50" height="50" relative="1" as="geometry">
            <mxPoint x="155.25" y="2239.25" as="sourcePoint" />
            <mxPoint x="114.25000000000006" y="2214.25" as="targetPoint" />
          </mxGeometry>
        </mxCell>
        <mxCell id="NrOy4aeaFnWakyzEMCqW-6" value="$$r$$" style="text;html=1;strokeColor=none;fillColor=none;align=center;verticalAlign=middle;whiteSpace=wrap;rounded=0;dashed=1;fontSize=11;opacity=40;" vertex="1" parent="1">
          <mxGeometry x="98.75" y="2193.25" width="14.5" height="8" as="geometry" />
        </mxCell>
        <mxCell id="NrOy4aeaFnWakyzEMCqW-7" value="$$r_x$$" style="text;html=1;strokeColor=none;fillColor=none;align=center;verticalAlign=middle;whiteSpace=wrap;rounded=0;dashed=1;fontSize=11;opacity=40;" vertex="1" parent="1">
          <mxGeometry x="79.75" y="2208.38" width="18" height="12" as="geometry" />
        </mxCell>
        <mxCell id="NrOy4aeaFnWakyzEMCqW-8" value="$$r_y$$" style="text;html=1;strokeColor=none;fillColor=none;align=center;verticalAlign=middle;whiteSpace=wrap;rounded=0;dashed=1;fontSize=11;opacity=40;" vertex="1" parent="1">
          <mxGeometry x="92.75" y="2229.25" width="16" height="12.5" as="geometry" />
        </mxCell>
        <mxCell id="NrOy4aeaFnWakyzEMCqW-9" value="" style="endArrow=classic;html=1;fontSize=11;exitX=0;exitY=0;exitDx=0;exitDy=0;fillColor=#dae8fc;strokeColor=#EA6B66;dashed=1;endSize=3;" edge="1" parent="1">
          <mxGeometry width="50" height="50" relative="1" as="geometry">
            <mxPoint x="96.60894212269113" y="2197.25" as="sourcePoint" />
            <mxPoint x="96.25" y="2178.2500000000005" as="targetPoint" />
          </mxGeometry>
        </mxCell>
        <mxCell id="NrOy4aeaFnWakyzEMCqW-10" value="" style="endArrow=classic;html=1;fontSize=11;fillColor=#d5e8d4;entryX=0;entryY=0;entryDx=0;entryDy=0;dashed=1;strokeColor=#CC6600;endSize=3;" edge="1" parent="1">
          <mxGeometry width="50" height="50" relative="1" as="geometry">
            <mxPoint x="35.25" y="2257.25" as="sourcePoint" />
            <mxPoint x="96.74894212269021" y="2177.4689421226904" as="targetPoint" />
          </mxGeometry>
        </mxCell>
        <mxCell id="NrOy4aeaFnWakyzEMCqW-11" value="$$\hat{r}_x$$" style="text;html=1;strokeColor=none;fillColor=none;align=center;verticalAlign=middle;whiteSpace=wrap;rounded=0;dashed=1;fontSize=11;opacity=40;" vertex="1" parent="1">
          <mxGeometry x="61.25" y="2189.25" width="18" height="12" as="geometry" />
        </mxCell>
        <mxCell id="NrOy4aeaFnWakyzEMCqW-12" value="" style="endArrow=classic;html=1;fontSize=11;" edge="1" parent="1">
          <mxGeometry width="50" height="50" relative="1" as="geometry">
            <mxPoint x="35" y="2258.2500000000005" as="sourcePoint" />
            <mxPoint x="143" y="2258.2500000000005" as="targetPoint" />
          </mxGeometry>
        </mxCell>
        <mxCell id="NrOy4aeaFnWakyzEMCqW-13" value="" style="endArrow=classic;html=1;fontSize=11;" edge="1" parent="1">
          <mxGeometry width="50" height="50" relative="1" as="geometry">
            <mxPoint x="35" y="2258.2500000000005" as="sourcePoint" />
            <mxPoint x="35.25" y="2180.25" as="targetPoint" />
          </mxGeometry>
        </mxCell>
      </root>
    </mxGraphModel>
  </diagram>
</mxfile>
